<svg xmlns="http://www.w3.org/2000/svg" xmlns:xlink="http://www.w3.org/1999/xlink" width="132" height="58" viewBox="0 0 132 58">
  <defs>
    <clipPath id="clip-fab_close">
      <rect width="132" height="58"/>
    </clipPath>
  </defs>
  <g id="fab_close" data-name="fab close" clip-path="url(#clip-fab_close)">
    <rect id="Rectangle_66" data-name="Rectangle 66" width="132" height="58" rx="29" fill="#be4848"/>
    <path id="Path_9" data-name="Path 9" d="M28.884,12.736l2.8.889a6.286,6.286,0,0,1-2.144,3.481,6.114,6.114,0,0,1-3.8,1.138A6.158,6.158,0,0,1,21.052,16.3a7.455,7.455,0,0,1-1.836-5.327,7.826,7.826,0,0,1,1.846-5.552,6.329,6.329,0,0,1,4.854-1.978,5.955,5.955,0,0,1,4.268,1.553,5.647,5.647,0,0,1,1.465,2.637l-2.861.684a2.957,2.957,0,0,0-3.018-2.4,3.257,3.257,0,0,0-2.583,1.143,5.6,5.6,0,0,0-.991,3.7,6.005,6.005,0,0,0,.977,3.867,3.171,3.171,0,0,0,2.539,1.152,2.9,2.9,0,0,0,1.982-.732A4.254,4.254,0,0,0,28.884,12.736ZM34.147,18V3.684h2.744V18Zm4.922-5.332a5.61,5.61,0,0,1,.674-2.646,4.625,4.625,0,0,1,1.909-1.953,5.666,5.666,0,0,1,2.759-.674,5.178,5.178,0,0,1,3.857,1.528,5.28,5.28,0,0,1,1.5,3.862,5.343,5.343,0,0,1-1.519,3.9,5.133,5.133,0,0,1-3.823,1.548,6.022,6.022,0,0,1-2.72-.645,4.421,4.421,0,0,1-1.968-1.89A6.3,6.3,0,0,1,39.069,12.668Zm2.813.146a3.436,3.436,0,0,0,.732,2.363,2.394,2.394,0,0,0,3.608,0,3.483,3.483,0,0,0,.728-2.383,3.42,3.42,0,0,0-.728-2.344,2.394,2.394,0,0,0-3.608,0A3.436,3.436,0,0,0,41.882,12.814Zm9.072,2.227,2.754-.42a2.018,2.018,0,0,0,.713,1.216,2.409,2.409,0,0,0,1.5.415,2.715,2.715,0,0,0,1.6-.391.872.872,0,0,0,.361-.732.721.721,0,0,0-.2-.518,2.187,2.187,0,0,0-.918-.361,14.8,14.8,0,0,1-4.209-1.338,2.672,2.672,0,0,1-1.23-2.334A2.876,2.876,0,0,1,52.4,8.313a4.971,4.971,0,0,1,3.3-.918,5.758,5.758,0,0,1,3.164.693,3.544,3.544,0,0,1,1.426,2.051l-2.588.479a1.6,1.6,0,0,0-.63-.928,2.3,2.3,0,0,0-1.323-.322,2.981,2.981,0,0,0-1.553.3.65.65,0,0,0-.312.557.606.606,0,0,0,.273.5,10.3,10.3,0,0,0,2.563.771,7.631,7.631,0,0,1,3.062,1.221,2.537,2.537,0,0,1,.859,2.041,3.133,3.133,0,0,1-1.191,2.451,5.274,5.274,0,0,1-3.525,1.025,5.785,5.785,0,0,1-3.354-.859A3.959,3.959,0,0,1,50.954,15.041Zm18.1-.342,2.734.459a4.485,4.485,0,0,1-1.665,2.29,4.891,4.891,0,0,1-2.847.786,4.64,4.64,0,0,1-4-1.768,5.938,5.938,0,0,1-1.025-3.574,5.727,5.727,0,0,1,1.348-4.038A4.438,4.438,0,0,1,67,7.395a4.6,4.6,0,0,1,3.652,1.528,6.762,6.762,0,0,1,1.279,4.683H65.056a2.776,2.776,0,0,0,.664,1.9,2.077,2.077,0,0,0,1.582.679,1.68,1.68,0,0,0,1.084-.352A2.171,2.171,0,0,0,69.05,14.7Zm.156-2.773a2.642,2.642,0,0,0-.615-1.812,1.98,1.98,0,0,0-2.91.034,2.532,2.532,0,0,0-.576,1.777Z" transform="translate(31 18)" fill="#fff"/>
    <g id="cancel-24px" transform="translate(21 17)">
      <path id="Path_7" data-name="Path 7" d="M0,0H24V24H0Z" fill="none"/>
      <path id="Path_8" data-name="Path 8" d="M12,2A10,10,0,1,0,22,12,9.991,9.991,0,0,0,12,2Zm5,13.59L15.59,17,12,13.41,8.41,17,7,15.59,10.59,12,7,8.41,8.41,7,12,10.59,15.59,7,17,8.41,13.41,12Z" fill="#fff"/>
    </g>
  </g>
</svg>
