<svg xmlns="http://www.w3.org/2000/svg" xmlns:xlink="http://www.w3.org/1999/xlink" width="132" height="58" viewBox="0 0 132 58">
  <defs>
    <clipPath id="clip-fab">
      <rect width="132" height="58"/>
    </clipPath>
  </defs>
  <g id="fab" clip-path="url(#clip-fab)">
    <rect id="Rectangle_66" data-name="Rectangle 66" width="132" height="58" rx="29" fill="#487abe"/>
    <path id="Path_6" data-name="Path 6" d="M28.073,3.684H33.8a16.532,16.532,0,0,1,2.534.142,3.723,3.723,0,0,1,1.494.591,3.674,3.674,0,0,1,1.1,1.2,3.241,3.241,0,0,1,.439,1.675,3.394,3.394,0,0,1-2.012,3.105,3.768,3.768,0,0,1,2.012,1.3,3.448,3.448,0,0,1,.7,2.158,4.255,4.255,0,0,1-.454,1.9,3.826,3.826,0,0,1-1.24,1.475,4.1,4.1,0,0,1-1.938.679q-.723.078-3.486.1H28.073Zm2.891,2.383V9.377h1.895q1.689,0,2.1-.049a1.911,1.911,0,0,0,1.167-.513A1.512,1.512,0,0,0,36.55,7.7a1.571,1.571,0,0,0-.366-1.079,1.658,1.658,0,0,0-1.089-.5q-.43-.049-2.471-.049Zm0,5.693v3.828H33.64a13.076,13.076,0,0,0,1.982-.088,1.791,1.791,0,0,0,1.05-.571,1.758,1.758,0,0,0,.405-1.216,1.868,1.868,0,0,0-.312-1.094,1.766,1.766,0,0,0-.9-.654A9.819,9.819,0,0,0,33.3,11.76Zm13.574-.967-2.49-.449a3.879,3.879,0,0,1,1.445-2.227,5.289,5.289,0,0,1,3.047-.723,6.566,6.566,0,0,1,2.734.435,2.727,2.727,0,0,1,1.265,1.1,5.659,5.659,0,0,1,.366,2.456l-.029,3.2a11.12,11.12,0,0,0,.132,2.017A5.886,5.886,0,0,0,51.5,18H48.786q-.107-.273-.264-.811-.068-.244-.1-.322a4.947,4.947,0,0,1-1.5,1.025,4.307,4.307,0,0,1-1.709.342,3.534,3.534,0,0,1-2.524-.869,2.889,2.889,0,0,1-.923-2.2,2.949,2.949,0,0,1,.42-1.567,2.744,2.744,0,0,1,1.177-1.055,9.2,9.2,0,0,1,2.183-.64,14.951,14.951,0,0,0,2.666-.674v-.273a1.421,1.421,0,0,0-.391-1.128,2.341,2.341,0,0,0-1.475-.337,1.964,1.964,0,0,0-1.143.288A2,2,0,0,0,44.538,10.793ZM48.21,13.02a17.153,17.153,0,0,1-1.67.42,5.03,5.03,0,0,0-1.494.479,1.144,1.144,0,0,0-.537.967,1.346,1.346,0,0,0,.43,1,1.5,1.5,0,0,0,1.094.42,2.376,2.376,0,0,0,1.416-.488A1.719,1.719,0,0,0,48.1,14.9a5.419,5.419,0,0,0,.107-1.338Zm5.146,5.664,3.135.381a1.07,1.07,0,0,0,.361.752,2.063,2.063,0,0,0,1.23.293,3.2,3.2,0,0,0,1.611-.322,1.328,1.328,0,0,0,.547-.693,4.166,4.166,0,0,0,.127-1.26V16.32A3.713,3.713,0,0,1,57.263,18a3.823,3.823,0,0,1-3.311-1.768A6.008,6.008,0,0,1,53,12.756,5.718,5.718,0,0,1,54.25,8.771a4.049,4.049,0,0,1,3.12-1.377,3.8,3.8,0,0,1,3.174,1.689V7.629h2.568v9.307a9.273,9.273,0,0,1-.3,2.744,3.4,3.4,0,0,1-.85,1.426,3.759,3.759,0,0,1-1.46.811,7.685,7.685,0,0,1-2.31.293,5.978,5.978,0,0,1-3.74-.9,2.834,2.834,0,0,1-1.1-2.29Q53.347,18.879,53.356,18.684ZM55.808,12.6a3.74,3.74,0,0,0,.64,2.417,1.978,1.978,0,0,0,1.577.767,2.18,2.18,0,0,0,1.7-.786,3.427,3.427,0,0,0,.693-2.329,3.632,3.632,0,0,0-.664-2.393,2.11,2.11,0,0,0-1.68-.781,2.026,2.026,0,0,0-1.626.767A3.6,3.6,0,0,0,55.808,12.6Z" transform="translate(32 19)" fill="#fff"/>
    <g id="local_mall-24px" transform="translate(24 16)">
      <path id="Path_4" data-name="Path 4" d="M0,0H24V24H0Z" fill="none"/>
      <path id="Path_5" data-name="Path 5" d="M19,6H17A5,5,0,0,0,7,6H5A2,2,0,0,0,3.01,8L3,20a2.006,2.006,0,0,0,2,2H19a2.006,2.006,0,0,0,2-2V8A2.006,2.006,0,0,0,19,6ZM12,3a3,3,0,0,1,3,3H9A3,3,0,0,1,12,3Zm0,10A5,5,0,0,1,7,8H9a3,3,0,0,0,6,0h2A5,5,0,0,1,12,13Z" fill="#fff"/>
    </g>
  </g>
</svg>
